<svg width="318.661" xmlns="http://www.w3.org/2000/svg" height="239.752" id="screenshot-b325a67e-1cd0-8080-8003-d5fb1b812347" viewBox="883 28 318.661 239.752" xmlns:xlink="http://www.w3.org/1999/xlink" fill="none" version="1.1"><g id="shape-b325a67e-1cd0-8080-8003-d5fb1b812347" data-testid="svg-path"><g class="fills" id="fills-b325a67e-1cd0-8080-8003-d5fb1b812347"><path d="M1017.154,28.158C996.830,28.788,980.397,30.443,962.153,33.701C957.853,34.469,949.961,36.283,944.318,37.799C937.503,39.633,927.663,42.956,923.658,44.776C922.792,45.171,921.548,45.706,920.895,45.969C919.074,46.698,914.176,49.119,911.484,50.618C899.103,57.515,889.917,66.011,885.594,74.568C883.948,77.825,883.986,78.990,885.770,80.045C887.358,80.984,888.023,80.485,889.782,77.034C893.746,69.263,902.446,61.169,913.150,55.297C914.113,54.767,915.200,54.164,915.568,53.953C917.842,52.642,925.372,49.247,929.068,47.863C930.167,47.451,931.667,46.889,932.400,46.615C933.614,46.160,937.012,45.050,941.152,43.754C942.022,43.480,943.859,42.966,945.234,42.606C946.609,42.250,948.561,41.732,949.567,41.459C950.576,41.185,952.152,40.801,953.068,40.602C953.986,40.404,955.936,39.982,957.401,39.663C961.438,38.784,964.866,38.116,966.903,37.815C967.912,37.664,969.861,37.355,971.236,37.129C974.400,36.607,978.796,35.964,981.486,35.632C983.842,35.341,989.879,34.730,993.987,34.369C995.041,34.276,996.692,34.123,997.655,34.032C1004.184,33.409,1015.947,32.892,1027.599,32.714L1035.129,32.598L1035.573,32.179C1036.891,30.938,1036.645,28.690,1035.134,28.160C1034.527,27.947,1024.016,27.947,1017.154,28.158ZZM1016.654,36.062C1008.326,36.358,1001.226,36.885,989.561,38.068C981.589,38.877,977.873,39.394,967.884,41.087C963.922,41.758,955.961,43.445,952.235,44.402C950.586,44.824,948.147,45.454,946.817,45.796C937.200,48.282,922.534,53.918,916.650,57.392C916.055,57.743,915.079,58.278,914.484,58.577C913.380,59.137,910.507,60.882,909.150,61.819C904.154,65.273,901.806,67.156,899.211,69.798C894.512,74.580,891.870,78.784,890.989,82.883C890.633,84.546,890.447,100.446,890.786,100.446C890.858,100.446,891.142,100.210,891.410,99.926C896.035,95.021,914.374,86.206,926.400,83.107C927.133,82.916,928.709,82.476,929.901,82.127C931.093,81.778,932.892,81.296,933.900,81.057C939.890,79.626,943.789,78.737,945.402,78.433C946.411,78.244,948.810,77.787,950.734,77.418C954.696,76.657,958.560,75.999,960.653,75.725C961.431,75.625,963.869,75.283,966.070,74.969C973.853,73.857,976.132,73.591,984.735,72.792C995.728,71.772,998.704,71.541,1008.570,70.933C1011.024,70.783,1020.960,70.376,1027.572,70.155C1032.392,69.994,1034.991,69.994,1039.472,70.150C1042.626,70.260,1045.236,70.323,1045.271,70.285C1045.306,70.250,1045.138,69.776,1044.895,69.233C1043.730,66.629,1041.826,61.648,1040.654,58.158C1039.131,53.604,1037.831,49.794,1036.065,44.704C1035.360,42.669,1034.399,39.851,1033.927,38.442L1033.072,35.881L1026.739,35.906C1023.253,35.918,1018.717,35.989,1016.654,36.062ZZM1004.914,48.054C1005.255,48.305,1005.426,56.304,1005.112,57.424C1004.949,58.012,1004.146,58.323,1002.164,58.567C999.168,58.934,998.995,58.615,999.108,52.956C999.176,49.523,999.306,48.893,1000.054,48.398C1000.869,47.860,1004.319,47.614,1004.914,48.054ZZM967.505,53.195C967.688,53.870,967.673,62.090,967.488,62.442C967.224,62.937,965.566,63.469,963.950,63.575L962.497,63.670L962.289,63.183C962.003,62.517,961.993,54.657,962.276,54.001C962.758,52.886,967.232,52.198,967.505,53.195ZZM935.361,61.925C935.659,61.957,935.499,69.956,935.192,70.308C934.590,70.996,931.677,71.730,931.000,71.365C930.616,71.157,930.450,64.175,930.806,63.228C931.022,62.658,933.720,61.741,934.819,61.864C935.047,61.890,935.290,61.917,935.361,61.925ZZM1033.822,73.716C1020.772,73.834,1016.953,73.932,1007.571,74.387C999.319,74.789,982.926,76.145,975.986,76.999C954.673,79.623,937.689,83.255,923.151,88.295C914.931,91.143,906.044,95.194,901.449,98.188C900.835,98.587,900.092,99.039,899.798,99.193C894.035,102.199,885.363,111.027,883.695,115.582C882.310,119.375,886.375,120.836,888.234,117.215C890.547,112.707,895.789,107.498,901.984,103.550C902.395,103.289,903.108,102.829,903.567,102.535C906.704,100.509,913.135,97.329,918.173,95.312C924.476,92.793,934.643,89.533,940.151,88.270C941.114,88.049,943.545,87.479,945.553,87.004C947.563,86.530,950.225,85.960,951.472,85.736C952.716,85.513,955.188,85.060,956.962,84.726C960.944,83.981,964.564,83.380,966.652,83.122C967.523,83.014,969.811,82.707,971.736,82.441C982.502,80.954,995.838,79.814,1011.987,79.000C1019.131,78.641,1024.709,78.536,1041.329,78.440C1062.647,78.320,1060.863,78.448,1061.412,76.996C1061.907,75.690,1061.463,74.414,1060.331,73.899C1059.596,73.565,1054.384,73.530,1033.822,73.716ZZM909.649,77.576C909.649,81.575,909.376,82.187,907.288,82.818C906.425,83.079,906.468,83.237,906.443,79.570C906.415,75.447,906.393,75.494,908.734,74.527C909.672,74.138,909.649,74.068,909.649,77.576ZZM1057.907,81.896C1057.355,82.109,1055.769,82.180,1048.821,82.295C1008.615,82.968,986.449,84.488,961.819,88.263C931.085,92.969,908.919,100.817,897.781,110.941C894.725,113.716,892.186,117.328,891.207,120.284L890.733,121.715L890.650,137.912C890.602,146.820,890.597,154.141,890.635,154.179C890.673,154.219,891.423,153.860,892.301,153.383C898.085,150.238,904.222,147.908,914.098,145.102C916.223,144.500,918.662,143.857,919.515,143.678C920.368,143.500,922.418,143.040,924.067,142.659C927.266,141.918,929.512,141.448,931.401,141.134C932.043,141.026,933.730,140.722,935.152,140.456C939.373,139.673,944.095,138.922,947.236,138.532C948.335,138.397,950.398,138.131,951.818,137.942C959.185,136.965,965.164,136.352,974.819,135.586C1003.747,133.291,1041.573,132.583,1072.739,133.753C1075.398,133.851,1077.885,133.909,1078.266,133.876L1078.956,133.821L1078.532,132.728C1078.299,132.126,1077.777,130.802,1077.373,129.785C1076.967,128.768,1076.374,127.218,1076.053,126.337C1075.735,125.460,1074.984,123.491,1074.390,121.967C1073.795,120.440,1072.751,117.755,1072.069,115.997C1071.389,114.241,1070.267,111.346,1069.577,109.567C1068.887,107.789,1068.323,106.280,1068.323,106.217C1068.323,106.154,1067.728,104.582,1067.000,102.726C1066.273,100.870,1065.083,97.801,1064.358,95.905C1061.944,89.606,1060.853,86.763,1059.917,84.350C1059.408,83.036,1058.989,81.883,1058.989,81.788C1058.989,81.554,1058.710,81.582,1057.907,81.896ZZM1043.803,87.250C1050.224,88.777,1055.042,97.530,1055.975,109.357C1056.113,111.089,1056.244,120.975,1056.176,124.277L1056.156,125.161L1042.323,125.161L1028.487,125.161L1028.487,118.488C1028.487,105.215,1029.652,98.994,1033.290,92.826C1035.704,88.730,1040.140,86.379,1043.803,87.250ZZM1003.040,88.589C1010.795,90.628,1014.489,100.810,1014.291,119.613L1014.238,124.574L1004.405,124.852C998.995,125.006,993.121,125.139,991.352,125.146L988.135,125.161L988.165,119.149C988.218,108.076,988.590,104.871,990.504,98.931C992.880,91.558,998.064,87.281,1003.040,88.589ZZM968.762,92.876C974.616,94.923,977.153,102.907,977.153,119.284L977.153,125.297L976.360,125.392C975.926,125.445,975.008,125.530,974.320,125.583C972.993,125.681,963.375,126.543,960.153,126.851C959.097,126.952,957.504,127.143,956.610,127.273C955.717,127.407,954.949,127.515,954.902,127.515C954.741,127.515,954.819,112.795,954.990,110.954C956.269,97.156,961.473,90.325,968.762,92.876ZZM941.079,99.883C946.042,101.566,948.175,108.312,948.217,122.471L948.235,128.441L947.236,128.642C945.924,128.906,943.766,129.298,941.902,129.612C938.221,130.227,937.059,130.453,934.329,131.073C930.011,132.055,930.332,132.409,930.312,126.673C930.242,108.179,934.477,97.643,941.079,99.883ZZM921.302,107.897C924.200,109.831,925.475,116.690,925.477,130.373C925.480,133.128,925.472,133.153,924.564,133.374C921.999,133.997,918.858,134.881,916.690,135.591C915.290,136.051,914.033,136.428,913.897,136.428C913.358,136.428,913.624,121.324,914.244,116.760C915.295,109.012,917.960,105.665,921.302,107.897ZZM904.200,117.024C906.724,118.310,907.532,122.085,907.554,132.688L907.567,138.786L905.818,139.519C904.854,139.921,902.804,140.866,901.264,141.616C899.721,142.370,898.406,142.985,898.341,142.985C898.147,142.985,898.265,129.273,898.479,127.095C899.189,119.774,901.525,115.663,904.200,117.024ZZM1020.905,137.282C999.517,137.676,976.089,139.047,960.901,140.795C951.994,141.820,950.305,142.026,947.650,142.410C942.775,143.113,932.728,144.821,929.901,145.429C922.730,146.966,920.218,147.541,918.150,148.114C916.913,148.455,914.828,149.025,913.521,149.379C895.869,154.141,880.413,163.800,883.364,168.223C884.438,169.830,886.342,169.614,887.717,167.723C890.756,163.547,898.501,159.297,909.983,155.505C914.570,153.991,921.688,152.067,925.753,151.240C927.118,150.964,929.622,150.439,931.318,150.075C934.372,149.420,935.363,149.244,942.318,148.121C949.648,146.941,953.871,146.391,962.402,145.509C964.145,145.328,966.993,145.032,968.735,144.849C972.870,144.414,979.574,143.879,983.654,143.661C985.441,143.563,988.140,143.410,989.653,143.317C1014.311,141.802,1041.600,141.458,1069.238,142.317C1085.457,142.819,1107.498,144.269,1117.743,145.504C1118.475,145.592,1120.613,145.821,1122.492,146.014C1126.163,146.388,1133.272,147.320,1136.659,147.870C1137.806,148.056,1140.280,148.438,1142.159,148.716C1149.955,149.874,1164.739,153.182,1171.132,155.201C1172.477,155.625,1173.952,156.075,1174.409,156.201C1182.295,158.343,1193.235,164.001,1196.884,167.821C1199.071,170.109,1201.658,169.647,1201.661,166.970C1201.663,163.383,1189.697,155.957,1177.912,152.230C1177.270,152.027,1175.475,151.449,1173.925,150.947C1172.374,150.444,1169.674,149.663,1167.923,149.214C1166.174,148.762,1163.881,148.161,1162.827,147.878C1161.773,147.594,1159.786,147.137,1158.411,146.860C1157.036,146.584,1154.464,146.054,1152.698,145.680C1141.469,143.309,1120.445,140.544,1105.408,139.459C1076.756,137.395,1050.942,136.729,1020.905,137.282ZZM1023.989,145.956C1019.025,146.044,1006.999,146.371,1003.155,146.521C991.992,146.961,991.166,147.001,982.987,147.528C972.797,148.181,957.386,149.769,948.569,151.070C945.452,151.529,942.338,151.979,941.651,152.069C940.145,152.263,938.738,152.519,933.817,153.486C931.755,153.893,929.391,154.352,928.568,154.505C919.292,156.243,905.309,160.751,899.001,164.034C895.420,165.900,891.297,168.705,890.773,169.635C890.625,169.901,890.520,213.603,890.668,213.603C890.725,213.603,891.476,213.339,892.334,213.015C893.809,212.458,897.781,211.300,901.899,210.223C905.145,209.374,913.749,207.673,917.899,207.061C928.066,205.561,936.843,204.494,942.903,204.019C944.092,203.926,947.244,203.665,949.901,203.434C958.698,202.678,966.780,202.143,974.152,201.834C983.105,201.457,990.863,201.169,996.654,200.998C999.999,200.900,1005.288,200.742,1008.404,200.646C1017.407,200.372,1053.862,200.254,1063.490,200.468C1076.392,200.757,1084.645,200.978,1089.407,201.164C1091.791,201.257,1096.666,201.445,1100.241,201.583C1111.728,202.025,1121.602,202.638,1132.993,203.615C1135.696,203.846,1139.221,204.142,1140.827,204.275C1145.112,204.629,1149.707,205.144,1155.076,205.873C1156.361,206.046,1158.647,206.345,1160.160,206.538C1164.245,207.053,1167.936,207.638,1172.409,208.482C1178.775,209.683,1179.736,209.886,1182.910,210.690C1184.561,211.109,1186.473,211.591,1187.161,211.762C1188.827,212.176,1191.313,212.952,1192.723,213.497C1193.353,213.741,1193.933,213.939,1194.016,213.939C1194.098,213.939,1194.161,204.542,1194.161,192.009L1194.161,170.077L1192.452,168.836C1190.367,167.321,1186.804,165.207,1185.045,164.441C1184.330,164.127,1183.031,163.554,1182.160,163.165C1177.621,161.138,1168.987,158.315,1162.910,156.869C1161.535,156.542,1159.322,156.010,1157.992,155.683C1153.179,154.500,1142.636,152.577,1134.993,151.484C1124.239,149.947,1119.090,149.372,1105.659,148.204C1085.089,146.421,1050.964,145.479,1023.989,145.956ZZM1044.383,152.330C1049.680,153.712,1053.767,159.398,1055.599,167.939C1056.060,170.079,1056.331,179.731,1056.191,189.008L1056.143,192.238L1045.274,192.160C1039.297,192.117,1033.074,192.082,1031.446,192.082L1028.487,192.082L1028.487,182.624C1028.490,172.882,1028.598,170.519,1029.170,167.643C1031.245,157.250,1037.826,150.623,1044.383,152.330ZZM1003.020,153.767C1004.746,154.139,1007.235,155.688,1008.477,157.168C1010.545,159.631,1011.950,162.329,1012.996,165.852C1014.100,169.577,1014.358,173.259,1014.286,184.432L1014.238,192.333L1011.822,192.366C1007.521,192.424,990.431,192.785,989.498,192.838C988.999,192.866,988.492,192.851,988.374,192.803C988.100,192.697,988.063,177.699,988.321,173.201C989.036,160.769,995.547,152.160,1003.020,153.767ZZM1085.452,153.830C1090.303,154.985,1094.495,161.113,1096.094,169.383C1096.330,170.599,1096.380,172.483,1096.443,181.976L1096.515,193.139L1093.961,193.039C1092.556,192.986,1088.107,192.856,1084.075,192.753C1080.040,192.647,1075.316,192.512,1073.572,192.449L1070.405,192.333L1070.357,184.852C1070.260,170.338,1071.098,164.765,1074.096,160.026C1077.343,154.895,1081.164,152.810,1085.452,153.830ZZM967.897,156.510C971.522,157.610,975.256,163.200,976.380,169.215C976.526,170.001,976.734,171.061,976.839,171.568C976.967,172.186,977.055,175.973,977.103,182.943L977.175,193.393L975.289,193.494C970.767,193.740,967.046,193.956,961.985,194.267C959.007,194.453,956.174,194.604,955.695,194.604L954.819,194.604L954.819,184.384C954.819,178.440,954.889,173.570,954.990,172.741C956.322,161.635,961.857,154.676,967.897,156.510ZZM1121.501,156.874C1124.941,158.519,1128.075,163.614,1129.139,169.298C1129.330,170.315,1129.571,171.563,1129.679,172.073C1129.807,172.691,1129.894,176.619,1129.942,183.970L1130.015,194.940L1129.628,194.940C1129.415,194.938,1126.128,194.749,1122.324,194.518C1118.520,194.287,1114.022,194.023,1112.325,193.928C1110.629,193.835,1108.843,193.715,1108.353,193.662L1107.465,193.569L1107.538,183.450C1107.583,176.825,1107.676,172.899,1107.806,172.073C1109.633,160.412,1115.434,153.975,1121.501,156.874ZZM941.272,160.568C944.797,162.306,947.452,168.361,948.140,176.222C948.406,179.253,948.381,195.098,948.110,195.189C947.997,195.226,945.952,195.458,943.568,195.699C941.184,195.940,937.697,196.319,935.817,196.545C933.938,196.771,931.941,196.957,931.379,196.957L930.357,196.957L930.270,194.815C930.011,188.508,930.387,177.284,931.000,173.188C932.360,164.064,936.946,158.431,941.272,160.568ZZM1146.736,160.314C1149.978,161.540,1152.677,166.663,1153.774,173.670C1154.030,175.310,1154.333,196.595,1154.108,197.185C1154.015,197.429,1154.281,197.449,1145.910,196.535C1142.977,196.216,1139.713,195.874,1138.659,195.779C1137.209,195.646,1136.692,195.535,1136.534,195.324C1136.067,194.697,1136.371,176.513,1136.900,173.334C1138.433,164.132,1142.518,158.722,1146.736,160.314ZZM920.782,164.448C923.026,165.882,924.892,172.020,925.314,179.349C925.505,182.687,925.540,197.288,925.357,197.562C925.289,197.665,924.709,197.796,924.067,197.856C922.850,197.972,917.970,198.745,915.423,199.227C914.457,199.411,913.887,199.451,913.782,199.343C913.433,198.991,913.727,177.993,914.113,175.516C915.456,166.955,918.027,162.685,920.782,164.448ZZM1165.873,164.230C1168.164,165.199,1170.226,170.853,1170.824,177.789C1170.989,179.711,1171.069,199.684,1170.911,199.843C1170.866,199.888,1168.297,199.524,1165.203,199.034C1162.109,198.544,1159.520,198.142,1159.452,198.140C1159.196,198.130,1159.309,179.206,1159.580,176.870C1160.508,168.863,1162.498,164.318,1165.206,164.016C1165.278,164.009,1165.579,164.104,1165.873,164.230ZZM904.200,169.680C905.000,170.446,906.079,172.940,906.558,175.135C907.544,179.633,907.552,179.736,907.559,190.653L907.567,200.742L907.150,200.789C906.922,200.817,904.874,201.299,902.601,201.862C900.328,202.424,898.413,202.829,898.351,202.763C898.140,202.552,898.238,180.381,898.459,178.661C898.797,176.019,900.313,171.496,901.362,169.994C902.074,168.976,903.324,168.838,904.200,169.680ZZM1183.041,169.680C1183.966,170.571,1185.146,173.653,1185.730,176.697C1186.328,179.819,1186.373,180.788,1186.448,192.062L1186.521,203.391L1186.049,203.271C1185.141,203.037,1178.572,201.483,1178.077,201.382C1176.853,201.136,1176.948,202.085,1177.044,191.268C1177.129,181.353,1177.217,179.806,1177.909,176.207C1179.023,170.416,1181.086,167.791,1183.041,169.680ZZM1018.320,204.469C994.822,204.735,977.198,205.363,959.985,206.551C943.979,207.653,940.015,208.030,925.525,209.826C917.744,210.793,908.192,212.533,901.909,214.135C889.983,217.172,884.034,220.221,884.360,223.129C884.578,225.080,886.498,225.937,888.088,224.792C890.510,223.049,891.493,222.471,893.114,221.836C897.058,220.291,899.716,219.520,906.899,217.827C908.796,217.380,913.737,216.484,919.985,215.451C922.654,215.012,926.488,214.487,929.150,214.201C930.387,214.065,933.015,213.769,934.984,213.538C942.251,212.689,948.443,212.131,955.652,211.677C957.805,211.541,962.457,211.240,965.985,211.006C1015.716,207.736,1102.178,208.756,1142.076,213.083C1155.166,214.502,1159.138,215.004,1165.494,216.047C1172.520,217.199,1173.872,217.446,1176.660,218.086C1178.082,218.412,1180.180,218.892,1181.327,219.153C1187.419,220.535,1192.026,222.155,1195.378,224.096C1198.519,225.917,1200.788,225.058,1200.359,222.207C1199.937,219.377,1186.797,214.939,1170.410,212.094C1161.743,210.587,1159.821,210.305,1152.595,209.477C1149.764,209.153,1146.538,208.781,1145.429,208.650C1138.160,207.796,1122.748,206.626,1107.741,205.787C1087.979,204.685,1049.486,204.117,1018.320,204.469ZZM1016.905,213.101C1005.476,213.249,988.002,213.754,979.070,214.198C957.273,215.278,952.736,215.602,936.818,217.225C929.958,217.923,925.296,218.523,920.484,219.322C919.430,219.495,917.443,219.801,916.068,219.997C911.049,220.715,901.994,222.833,897.671,224.297C894.401,225.404,893.112,225.969,891.523,226.992L890.648,227.557L890.690,247.591L890.733,267.627L1011.071,267.675C1077.258,267.703,1145.097,267.733,1161.826,267.743C1196.956,267.765,1194.856,267.843,1194.588,266.500C1194.530,266.213,1194.412,258.717,1194.324,249.839C1194.236,240.960,1194.144,232.336,1194.121,230.671L1194.078,227.645L1192.329,226.763C1190.182,225.686,1182.765,223.255,1180.160,222.775C1179.839,222.717,1179.091,222.561,1178.494,222.428C1173.922,221.419,1172.633,221.150,1170.578,220.773C1167.220,220.160,1157.297,218.684,1152.409,218.068C1149.192,217.664,1137.771,216.544,1130.993,215.966C1124.470,215.414,1122.889,215.308,1114.576,214.871C1083.428,213.239,1051.426,212.659,1016.905,213.101ZZM1046.322,221.758C1050.791,222.988,1054.680,227.152,1055.822,231.932C1056.156,233.331,1056.489,259.234,1056.206,261.650L1056.121,262.366L1042.298,262.366L1028.475,262.366L1028.528,247.528L1028.580,232.688L1028.962,231.434C1031.305,223.714,1038.614,219.641,1046.322,221.758ZZM1004.234,222.426C1009.092,223.669,1012.881,227.632,1013.944,232.582C1014.185,233.705,1014.225,235.641,1014.278,248.116L1014.341,262.368L1001.288,262.323L988.236,262.280L988.193,249.502C988.145,235.503,988.223,233.403,988.883,231.344C990.258,227.042,994.049,223.373,998.069,222.456C1000.583,221.883,1002.079,221.876,1004.234,222.426ZZM1086.928,222.556C1091.479,223.900,1095.228,228.077,1096.254,232.939C1096.440,233.820,1096.485,236.794,1096.488,248.201L1096.490,262.368L1083.448,262.323L1070.405,262.280L1070.360,250.007C1070.290,232.391,1070.393,231.442,1072.754,227.896C1074.826,224.777,1077.734,222.890,1081.656,222.117C1082.652,221.921,1085.601,222.167,1086.928,222.556ZZM968.828,224.171C972.493,225.246,975.507,228.546,976.684,232.773C977.078,234.190,977.301,245.059,977.175,256.775L977.115,262.366L965.857,262.366L954.596,262.366L954.711,248.620C954.801,237.829,954.877,234.639,955.060,233.780C956.616,226.482,962.565,222.330,968.828,224.171ZZM1121.717,224.191C1125.225,225.206,1128.243,228.556,1129.282,232.580C1129.784,234.531,1129.970,239.976,1129.957,252.360C1129.947,261.796,1129.912,262.268,1129.242,262.323C1127.328,262.479,1107.932,262.373,1107.766,262.205C1107.475,261.911,1107.498,235.832,1107.791,234.127C1108.760,228.461,1112.220,224.774,1117.492,223.795C1118.287,223.646,1120.580,223.862,1121.717,224.191ZZM942.118,226.751C944.632,227.805,946.832,230.792,947.856,234.539C948.220,235.865,948.225,236.071,948.280,249.125L948.333,262.368L939.450,262.326L930.568,262.280L930.553,250.680C930.538,234.863,930.608,234.061,932.327,230.990C934.683,226.788,938.384,225.183,942.118,226.751ZZM1146.344,226.218C1149.840,226.886,1152.703,230.103,1153.684,234.463C1154.017,235.945,1154.331,261.241,1154.027,262.155C1153.942,262.414,1150.118,262.446,1148.046,262.205C1147.253,262.112,1145.960,262.105,1144.954,262.185C1144.006,262.263,1141.710,262.285,1139.853,262.238L1136.478,262.147L1136.536,249.015C1136.604,234.338,1136.539,235.172,1137.841,231.957C1139.005,229.081,1140.686,227.328,1142.992,226.582C1143.589,226.391,1144.189,226.198,1144.327,226.153C1144.749,226.017,1145.406,226.040,1146.344,226.218ZZM920.953,229.084C922.689,229.960,923.808,231.668,924.717,234.827C925.382,237.148,925.482,239.293,925.485,251.225L925.485,262.366L919.568,262.366L913.649,262.366L913.649,250.718C913.649,236.467,913.729,235.651,915.415,232.135C916.896,229.051,918.803,227.999,920.953,229.084ZZM1166.264,228.928C1168.016,229.589,1169.300,231.455,1170.244,234.714C1170.861,236.839,1171.014,240.694,1170.957,252.614L1170.909,262.280L1168.410,262.366C1164.852,262.484,1159.655,262.295,1159.500,262.039C1159.317,261.743,1159.480,238.655,1159.675,236.977C1160.358,231.128,1163.128,227.743,1166.264,228.928ZZM904.272,232.226C905.830,233.298,907.010,235.887,907.479,239.275C907.599,240.159,907.722,256.007,907.652,262.157C907.652,262.326,906.651,262.361,902.942,262.326L898.233,262.280L898.195,253.453C898.137,240.059,898.343,237.407,899.658,234.717C900.985,231.995,902.636,231.103,904.272,232.226ZZM1182.795,232.002C1183.761,232.512,1185.239,234.503,1185.823,236.081C1186.415,237.673,1186.531,240.112,1186.433,248.997C1186.383,253.530,1186.338,258.352,1186.335,259.716L1186.328,262.198L1181.761,262.198C1178.258,262.198,1177.179,262.147,1177.124,261.987C1176.840,261.155,1177.307,238.160,1177.633,236.945C1178.622,233.250,1180.945,231.025,1182.795,232.002ZZ" fill-rule="evenodd" rx="0" ry="0" style="-webkit-print-color-adjust: exact; fill: rgb(0, 0, 0);"/></g></g></svg>