<svg width="318.661" xmlns="http://www.w3.org/2000/svg" height="239.752" id="screenshot-b325a67e-1cd0-8080-8003-d5fb15a2b5b6" viewBox="392 28 318.661 239.752" xmlns:xlink="http://www.w3.org/1999/xlink" fill="none" version="1.1"><g id="shape-b325a67e-1cd0-8080-8003-d5fb15a2b5b6" data-testid="svg-path"><g class="fills" id="fills-b325a67e-1cd0-8080-8003-d5fb15a2b5b6"><path d="M526.154,28.158C505.830,28.788,489.397,30.443,471.153,33.701C466.853,34.469,458.961,36.283,453.318,37.799C446.503,39.633,436.663,42.956,432.658,44.776C431.792,45.171,430.548,45.706,429.895,45.969C428.074,46.698,423.176,49.119,420.484,50.618C408.103,57.515,398.917,66.011,394.594,74.568C392.948,77.825,392.986,78.990,394.770,80.045C396.358,80.984,397.023,80.485,398.782,77.034C402.746,69.263,411.446,61.169,422.150,55.297C423.113,54.767,424.200,54.164,424.568,53.953C426.842,52.642,434.372,49.247,438.068,47.863C439.167,47.451,440.667,46.889,441.400,46.615C442.614,46.160,446.012,45.050,450.152,43.754C451.022,43.480,452.859,42.966,454.234,42.606C455.609,42.250,457.561,41.732,458.567,41.459C459.576,41.185,461.152,40.801,462.068,40.602C462.986,40.404,464.936,39.982,466.401,39.663C470.438,38.784,473.866,38.116,475.903,37.815C476.912,37.664,478.861,37.355,480.236,37.129C483.400,36.607,487.796,35.964,490.486,35.632C492.842,35.341,498.879,34.730,502.987,34.369C504.041,34.276,505.692,34.123,506.655,34.032C513.184,33.409,524.947,32.892,536.599,32.714L544.129,32.598L544.573,32.179C545.891,30.938,545.645,28.690,544.134,28.160C543.527,27.947,533.016,27.947,526.154,28.158ZZM525.654,36.062C517.326,36.358,510.226,36.885,498.561,38.068C490.589,38.877,486.873,39.394,476.884,41.087C472.922,41.758,464.961,43.445,461.235,44.402C459.586,44.824,457.147,45.454,455.817,45.796C446.200,48.282,431.534,53.918,425.650,57.392C425.055,57.743,424.079,58.278,423.484,58.577C422.380,59.137,419.507,60.882,418.150,61.819C413.154,65.273,410.806,67.156,408.211,69.798C403.512,74.580,400.870,78.784,399.989,82.883C399.633,84.546,399.447,100.446,399.786,100.446C399.858,100.446,400.142,100.210,400.410,99.926C405.035,95.021,423.374,86.206,435.400,83.107C436.133,82.916,437.709,82.476,438.901,82.127C440.093,81.778,441.892,81.296,442.900,81.057C448.890,79.626,452.789,78.737,454.402,78.433C455.411,78.244,457.810,77.787,459.734,77.418C463.696,76.657,467.560,75.999,469.653,75.725C470.431,75.625,472.869,75.283,475.070,74.969C482.853,73.857,485.132,73.591,493.735,72.792C504.728,71.772,507.704,71.541,517.570,70.933C520.024,70.783,529.960,70.376,536.572,70.155C541.392,69.994,543.991,69.994,548.472,70.150C551.626,70.260,554.236,70.323,554.271,70.285C554.306,70.250,554.138,69.776,553.895,69.233C552.730,66.629,550.826,61.648,549.654,58.158C548.131,53.604,546.831,49.794,545.065,44.704C544.360,42.669,543.399,39.851,542.927,38.442L542.072,35.881L535.739,35.906C532.253,35.918,527.717,35.989,525.654,36.062ZZM513.914,48.054C514.255,48.305,514.426,56.304,514.112,57.424C513.949,58.012,513.146,58.323,511.164,58.567C508.168,58.934,507.995,58.615,508.108,52.956C508.176,49.523,508.306,48.893,509.054,48.398C509.869,47.860,513.319,47.614,513.914,48.054ZZM476.505,53.195C476.688,53.870,476.673,62.090,476.488,62.442C476.224,62.937,474.566,63.469,472.950,63.575L471.497,63.670L471.289,63.183C471.003,62.517,470.993,54.657,471.276,54.001C471.758,52.886,476.232,52.198,476.505,53.195ZZM444.361,61.925C444.659,61.957,444.499,69.956,444.192,70.308C443.590,70.996,440.677,71.730,440.000,71.365C439.616,71.157,439.450,64.175,439.806,63.228C440.022,62.658,442.720,61.741,443.819,61.864C444.047,61.890,444.290,61.917,444.361,61.925ZZM542.822,73.716C529.772,73.834,525.953,73.932,516.571,74.387C508.319,74.789,491.926,76.145,484.986,76.999C463.673,79.623,446.689,83.255,432.151,88.295C423.931,91.143,415.044,95.194,410.449,98.188C409.835,98.587,409.092,99.039,408.798,99.193C403.035,102.199,394.363,111.027,392.695,115.582C391.310,119.375,395.375,120.836,397.234,117.215C399.547,112.707,404.789,107.498,410.984,103.550C411.395,103.289,412.108,102.829,412.567,102.535C415.704,100.509,422.135,97.329,427.173,95.312C433.476,92.793,443.643,89.533,449.151,88.270C450.114,88.049,452.545,87.479,454.553,87.004C456.563,86.530,459.225,85.960,460.472,85.736C461.716,85.513,464.188,85.060,465.962,84.726C469.944,83.981,473.564,83.380,475.652,83.122C476.523,83.014,478.811,82.707,480.736,82.441C491.502,80.954,504.838,79.814,520.987,79.000C528.131,78.641,533.709,78.536,550.329,78.440C571.647,78.320,569.863,78.448,570.412,76.996C570.907,75.690,570.463,74.414,569.331,73.899C568.596,73.565,563.384,73.530,542.822,73.716ZZM418.649,77.576C418.649,81.575,418.376,82.187,416.288,82.818C415.425,83.079,415.468,83.237,415.443,79.570C415.415,75.447,415.393,75.494,417.734,74.527C418.672,74.138,418.649,74.068,418.649,77.576ZZM566.907,81.896C566.355,82.109,564.769,82.180,557.821,82.295C517.615,82.968,495.449,84.488,470.819,88.263C440.085,92.969,417.919,100.817,406.781,110.941C403.725,113.716,401.186,117.328,400.207,120.284L399.733,121.715L399.650,137.912C399.602,146.820,399.597,154.141,399.635,154.179C399.673,154.219,400.423,153.860,401.301,153.383C407.085,150.238,413.222,147.908,423.098,145.102C425.223,144.500,427.662,143.857,428.515,143.678C429.368,143.500,431.418,143.040,433.067,142.659C436.266,141.918,438.512,141.448,440.401,141.134C441.043,141.026,442.730,140.722,444.152,140.456C448.373,139.673,453.095,138.922,456.236,138.532C457.335,138.397,459.398,138.131,460.818,137.942C468.185,136.965,474.164,136.352,483.819,135.586C512.747,133.291,550.573,132.583,581.739,133.753C584.398,133.851,586.885,133.909,587.266,133.876L587.956,133.821L587.532,132.728C587.299,132.126,586.777,130.802,586.373,129.785C585.967,128.768,585.374,127.218,585.053,126.337C584.735,125.460,583.984,123.491,583.390,121.967C582.795,120.440,581.751,117.755,581.069,115.997C580.389,114.241,579.267,111.346,578.577,109.567C577.887,107.789,577.323,106.280,577.323,106.217C577.323,106.154,576.728,104.582,576.000,102.726C575.273,100.870,574.083,97.801,573.358,95.905C570.944,89.606,569.853,86.763,568.917,84.350C568.408,83.036,567.989,81.883,567.989,81.788C567.989,81.554,567.710,81.582,566.907,81.896ZZM552.803,87.250C559.224,88.777,564.042,97.530,564.975,109.357C565.113,111.089,565.244,120.975,565.176,124.277L565.156,125.161L551.323,125.161L537.487,125.161L537.487,118.488C537.487,105.215,538.652,98.994,542.290,92.826C544.704,88.730,549.140,86.379,552.803,87.250ZZM512.040,88.589C519.795,90.628,523.489,100.810,523.291,119.613L523.238,124.574L513.405,124.852C507.995,125.006,502.121,125.139,500.352,125.146L497.135,125.161L497.165,119.149C497.218,108.076,497.590,104.871,499.504,98.931C501.880,91.558,507.064,87.281,512.040,88.589ZZM477.762,92.876C483.616,94.923,486.153,102.907,486.153,119.284L486.153,125.297L485.360,125.392C484.926,125.445,484.008,125.530,483.320,125.583C481.993,125.681,472.375,126.543,469.153,126.851C468.097,126.952,466.504,127.143,465.610,127.273C464.717,127.407,463.949,127.515,463.902,127.515C463.741,127.515,463.819,112.795,463.990,110.954C465.269,97.156,470.473,90.325,477.762,92.876ZZM450.079,99.883C455.042,101.566,457.175,108.312,457.217,122.471L457.235,128.441L456.236,128.642C454.924,128.906,452.766,129.298,450.902,129.612C447.221,130.227,446.059,130.453,443.329,131.073C439.011,132.055,439.332,132.409,439.312,126.673C439.242,108.179,443.477,97.643,450.079,99.883ZZM430.302,107.897C433.200,109.831,434.475,116.690,434.477,130.373C434.480,133.128,434.472,133.153,433.564,133.374C430.999,133.997,427.858,134.881,425.690,135.591C424.290,136.051,423.033,136.428,422.897,136.428C422.358,136.428,422.624,121.324,423.244,116.760C424.295,109.012,426.960,105.665,430.302,107.897ZZM413.200,117.024C415.724,118.310,416.532,122.085,416.554,132.688L416.567,138.786L414.818,139.519C413.854,139.921,411.804,140.866,410.264,141.616C408.721,142.370,407.406,142.985,407.341,142.985C407.147,142.985,407.265,129.273,407.479,127.095C408.189,119.774,410.525,115.663,413.200,117.024ZZM529.905,137.282C508.517,137.676,485.089,139.047,469.901,140.795C460.994,141.820,459.305,142.026,456.650,142.410C451.775,143.113,441.728,144.821,438.901,145.429C431.730,146.966,429.218,147.541,427.150,148.114C425.913,148.455,423.828,149.025,422.521,149.379C404.869,154.141,389.413,163.800,392.364,168.223C393.438,169.830,395.342,169.614,396.717,167.723C399.756,163.547,407.501,159.297,418.983,155.505C423.570,153.991,430.688,152.067,434.753,151.240C436.118,150.964,438.622,150.439,440.318,150.075C443.372,149.420,444.363,149.244,451.318,148.121C458.648,146.941,462.871,146.391,471.402,145.509C473.145,145.328,475.993,145.032,477.735,144.849C481.870,144.414,488.574,143.879,492.654,143.661C494.441,143.563,497.140,143.410,498.653,143.317C523.311,141.802,550.600,141.458,578.238,142.317C594.457,142.819,616.498,144.269,626.743,145.504C627.475,145.592,629.613,145.821,631.492,146.014C635.163,146.388,642.272,147.320,645.659,147.870C646.806,148.056,649.280,148.438,651.159,148.716C658.955,149.874,673.739,153.182,680.132,155.201C681.477,155.625,682.952,156.075,683.409,156.201C691.295,158.343,702.235,164.001,705.884,167.821C708.071,170.109,710.658,169.647,710.661,166.970C710.663,163.383,698.697,155.957,686.912,152.230C686.270,152.027,684.475,151.449,682.925,150.947C681.374,150.444,678.674,149.663,676.923,149.214C675.174,148.762,672.881,148.161,671.827,147.878C670.773,147.594,668.786,147.137,667.411,146.860C666.036,146.584,663.464,146.054,661.698,145.680C650.469,143.309,629.445,140.544,614.408,139.459C585.756,137.395,559.942,136.729,529.905,137.282ZZM532.989,145.956C528.025,146.044,515.999,146.371,512.155,146.521C500.992,146.961,500.166,147.001,491.987,147.528C481.797,148.181,466.386,149.769,457.569,151.070C454.452,151.529,451.338,151.979,450.651,152.069C449.145,152.263,447.738,152.519,442.817,153.486C440.755,153.893,438.391,154.352,437.568,154.505C428.292,156.243,414.309,160.751,408.001,164.034C404.420,165.900,400.297,168.705,399.773,169.635C399.625,169.901,399.520,213.603,399.668,213.603C399.725,213.603,400.476,213.339,401.334,213.015C402.809,212.458,406.781,211.300,410.899,210.223C414.145,209.374,422.749,207.673,426.899,207.061C437.066,205.561,445.843,204.494,451.903,204.019C453.092,203.926,456.244,203.665,458.901,203.434C467.698,202.678,475.780,202.143,483.152,201.834C492.105,201.457,499.863,201.169,505.654,200.998C508.999,200.900,514.288,200.742,517.404,200.646C526.407,200.372,562.862,200.254,572.490,200.468C585.392,200.757,593.645,200.978,598.407,201.164C600.791,201.257,605.666,201.445,609.241,201.583C620.728,202.025,630.602,202.638,641.993,203.615C644.696,203.846,648.221,204.142,649.827,204.275C654.112,204.629,658.707,205.144,664.076,205.873C665.361,206.046,667.647,206.345,669.160,206.538C673.245,207.053,676.936,207.638,681.409,208.482C687.775,209.683,688.736,209.886,691.910,210.690C693.561,211.109,695.473,211.591,696.161,211.762C697.827,212.176,700.313,212.952,701.723,213.497C702.353,213.741,702.933,213.939,703.016,213.939C703.098,213.939,703.161,204.542,703.161,192.009L703.161,170.077L701.452,168.836C699.367,167.321,695.804,165.207,694.045,164.441C693.330,164.127,692.031,163.554,691.160,163.165C686.621,161.138,677.987,158.315,671.910,156.869C670.535,156.542,668.322,156.010,666.992,155.683C662.179,154.500,651.636,152.577,643.993,151.484C633.239,149.947,628.090,149.372,614.659,148.204C594.089,146.421,559.964,145.479,532.989,145.956ZZM553.383,152.330C558.680,153.712,562.767,159.398,564.599,167.939C565.060,170.079,565.331,179.731,565.191,189.008L565.143,192.238L554.274,192.160C548.297,192.117,542.074,192.082,540.446,192.082L537.487,192.082L537.487,182.624C537.490,172.882,537.598,170.519,538.170,167.643C540.245,157.250,546.826,150.623,553.383,152.330ZZM512.020,153.767C513.746,154.139,516.235,155.688,517.477,157.168C519.545,159.631,520.950,162.329,521.996,165.852C523.100,169.577,523.358,173.259,523.286,184.432L523.238,192.333L520.822,192.366C516.521,192.424,499.431,192.785,498.498,192.838C497.999,192.866,497.492,192.851,497.374,192.803C497.100,192.697,497.063,177.699,497.321,173.201C498.036,160.769,504.547,152.160,512.020,153.767ZZM594.452,153.830C599.303,154.985,603.495,161.113,605.094,169.383C605.330,170.599,605.380,172.483,605.443,181.976L605.515,193.139L602.961,193.039C601.556,192.986,597.107,192.856,593.075,192.753C589.040,192.647,584.316,192.512,582.572,192.449L579.405,192.333L579.357,184.852C579.260,170.338,580.098,164.765,583.096,160.026C586.343,154.895,590.164,152.810,594.452,153.830ZZM476.897,156.510C480.522,157.610,484.256,163.200,485.380,169.215C485.526,170.001,485.734,171.061,485.839,171.568C485.967,172.186,486.055,175.973,486.103,182.943L486.175,193.393L484.289,193.494C479.767,193.740,476.046,193.956,470.985,194.267C468.007,194.453,465.174,194.604,464.695,194.604L463.819,194.604L463.819,184.384C463.819,178.440,463.889,173.570,463.990,172.741C465.322,161.635,470.857,154.676,476.897,156.510ZZM630.501,156.874C633.941,158.519,637.075,163.614,638.139,169.298C638.330,170.315,638.571,171.563,638.679,172.073C638.807,172.691,638.894,176.619,638.942,183.970L639.015,194.940L638.628,194.940C638.415,194.938,635.128,194.749,631.324,194.518C627.520,194.287,623.022,194.023,621.325,193.928C619.629,193.835,617.843,193.715,617.353,193.662L616.465,193.569L616.538,183.450C616.583,176.825,616.676,172.899,616.806,172.073C618.633,160.412,624.434,153.975,630.501,156.874ZZM450.272,160.568C453.797,162.306,456.452,168.361,457.140,176.222C457.406,179.253,457.381,195.098,457.110,195.189C456.997,195.226,454.952,195.458,452.568,195.699C450.184,195.940,446.697,196.319,444.817,196.545C442.938,196.771,440.941,196.957,440.379,196.957L439.357,196.957L439.270,194.815C439.011,188.508,439.387,177.284,440.000,173.188C441.360,164.064,445.946,158.431,450.272,160.568ZZM655.736,160.314C658.978,161.540,661.677,166.663,662.774,173.670C663.030,175.310,663.333,196.595,663.108,197.185C663.015,197.429,663.281,197.449,654.910,196.535C651.977,196.216,648.713,195.874,647.659,195.779C646.209,195.646,645.692,195.535,645.534,195.324C645.067,194.697,645.371,176.513,645.900,173.334C647.433,164.132,651.518,158.722,655.736,160.314ZZM429.782,164.448C432.026,165.882,433.892,172.020,434.314,179.349C434.505,182.687,434.540,197.288,434.357,197.562C434.289,197.665,433.709,197.796,433.067,197.856C431.850,197.972,426.970,198.745,424.423,199.227C423.457,199.411,422.887,199.451,422.782,199.343C422.433,198.991,422.727,177.993,423.113,175.516C424.456,166.955,427.027,162.685,429.782,164.448ZZM674.873,164.230C677.164,165.199,679.226,170.853,679.824,177.789C679.989,179.711,680.069,199.684,679.911,199.843C679.866,199.888,677.297,199.524,674.203,199.034C671.109,198.544,668.520,198.142,668.452,198.140C668.196,198.130,668.309,179.206,668.580,176.870C669.508,168.863,671.498,164.318,674.206,164.016C674.278,164.009,674.579,164.104,674.873,164.230ZZM413.200,169.680C414.000,170.446,415.079,172.940,415.558,175.135C416.544,179.633,416.552,179.736,416.559,190.653L416.567,200.742L416.150,200.789C415.922,200.817,413.874,201.299,411.601,201.862C409.328,202.424,407.413,202.829,407.351,202.763C407.140,202.552,407.238,180.381,407.459,178.661C407.797,176.019,409.313,171.496,410.362,169.994C411.074,168.976,412.324,168.838,413.200,169.680ZZM692.041,169.680C692.966,170.571,694.146,173.653,694.730,176.697C695.328,179.819,695.373,180.788,695.448,192.062L695.521,203.391L695.049,203.271C694.141,203.037,687.572,201.483,687.077,201.382C685.853,201.136,685.948,202.085,686.044,191.268C686.129,181.353,686.217,179.806,686.909,176.207C688.023,170.416,690.086,167.791,692.041,169.680ZZM527.320,204.469C503.822,204.735,486.198,205.363,468.985,206.551C452.979,207.653,449.015,208.030,434.525,209.826C426.744,210.793,417.192,212.533,410.909,214.135C398.983,217.172,393.034,220.221,393.360,223.129C393.578,225.080,395.498,225.937,397.088,224.792C399.510,223.049,400.493,222.471,402.114,221.836C406.058,220.291,408.716,219.520,415.899,217.827C417.796,217.380,422.737,216.484,428.985,215.451C431.654,215.012,435.488,214.487,438.150,214.201C439.387,214.065,442.015,213.769,443.984,213.538C451.251,212.689,457.443,212.131,464.652,211.677C466.805,211.541,471.457,211.240,474.985,211.006C524.716,207.736,611.178,208.756,651.076,213.083C664.166,214.502,668.138,215.004,674.494,216.047C681.520,217.199,682.872,217.446,685.660,218.086C687.082,218.412,689.180,218.892,690.327,219.153C696.419,220.535,701.026,222.155,704.378,224.096C707.519,225.917,709.788,225.058,709.359,222.207C708.937,219.377,695.797,214.939,679.410,212.094C670.743,210.587,668.821,210.305,661.595,209.477C658.764,209.153,655.538,208.781,654.429,208.650C647.160,207.796,631.748,206.626,616.741,205.787C596.979,204.685,558.486,204.117,527.320,204.469ZZM525.905,213.101C514.476,213.249,497.002,213.754,488.070,214.198C466.273,215.278,461.736,215.602,445.818,217.225C438.958,217.923,434.296,218.523,429.484,219.322C428.430,219.495,426.443,219.801,425.068,219.997C420.049,220.715,410.994,222.833,406.671,224.297C403.401,225.404,402.112,225.969,400.523,226.992L399.648,227.557L399.690,247.591L399.733,267.627L520.071,267.675C586.258,267.703,654.097,267.733,670.826,267.743C705.956,267.765,703.856,267.843,703.588,266.500C703.530,266.213,703.412,258.717,703.324,249.839C703.236,240.960,703.144,232.336,703.121,230.671L703.078,227.645L701.329,226.763C699.182,225.686,691.765,223.255,689.160,222.775C688.839,222.717,688.091,222.561,687.494,222.428C682.922,221.419,681.633,221.150,679.578,220.773C676.220,220.160,666.297,218.684,661.409,218.068C658.192,217.664,646.771,216.544,639.993,215.966C633.470,215.414,631.889,215.308,623.576,214.871C592.428,213.239,560.426,212.659,525.905,213.101ZZM555.322,221.758C559.791,222.988,563.680,227.152,564.822,231.932C565.156,233.331,565.489,259.234,565.206,261.650L565.121,262.366L551.298,262.366L537.475,262.366L537.528,247.528L537.580,232.688L537.962,231.434C540.305,223.714,547.614,219.641,555.322,221.758ZZM513.234,222.426C518.092,223.669,521.881,227.632,522.944,232.582C523.185,233.705,523.225,235.641,523.278,248.116L523.341,262.368L510.288,262.323L497.236,262.280L497.193,249.502C497.145,235.503,497.223,233.403,497.883,231.344C499.258,227.042,503.049,223.373,507.069,222.456C509.583,221.883,511.079,221.876,513.234,222.426ZZM595.928,222.556C600.479,223.900,604.228,228.077,605.254,232.939C605.440,233.820,605.485,236.794,605.488,248.201L605.490,262.368L592.448,262.323L579.405,262.280L579.360,250.007C579.290,232.391,579.393,231.442,581.754,227.896C583.826,224.777,586.734,222.890,590.656,222.117C591.652,221.921,594.601,222.167,595.928,222.556ZZM477.828,224.171C481.493,225.246,484.507,228.546,485.684,232.773C486.078,234.190,486.301,245.059,486.175,256.775L486.115,262.366L474.857,262.366L463.596,262.366L463.711,248.620C463.801,237.829,463.877,234.639,464.060,233.780C465.616,226.482,471.565,222.330,477.828,224.171ZZM630.717,224.191C634.225,225.206,637.243,228.556,638.282,232.580C638.784,234.531,638.970,239.976,638.957,252.360C638.947,261.796,638.912,262.268,638.242,262.323C636.328,262.479,616.932,262.373,616.766,262.205C616.475,261.911,616.498,235.832,616.791,234.127C617.760,228.461,621.220,224.774,626.492,223.795C627.287,223.646,629.580,223.862,630.717,224.191ZZM451.118,226.751C453.632,227.805,455.832,230.792,456.856,234.539C457.220,235.865,457.225,236.071,457.280,249.125L457.333,262.368L448.450,262.326L439.568,262.280L439.553,250.680C439.538,234.863,439.608,234.061,441.327,230.990C443.683,226.788,447.384,225.183,451.118,226.751ZZM655.344,226.218C658.840,226.886,661.703,230.103,662.684,234.463C663.017,235.945,663.331,261.241,663.027,262.155C662.942,262.414,659.118,262.446,657.046,262.205C656.253,262.112,654.960,262.105,653.954,262.185C653.006,262.263,650.710,262.285,648.853,262.238L645.478,262.147L645.536,249.015C645.604,234.338,645.539,235.172,646.841,231.957C648.005,229.081,649.686,227.328,651.992,226.582C652.589,226.391,653.189,226.198,653.327,226.153C653.749,226.017,654.406,226.040,655.344,226.218ZZM429.953,229.084C431.689,229.960,432.808,231.668,433.717,234.827C434.382,237.148,434.482,239.293,434.485,251.225L434.485,262.366L428.568,262.366L422.649,262.366L422.649,250.718C422.649,236.467,422.729,235.651,424.415,232.135C425.896,229.051,427.803,227.999,429.953,229.084ZZM675.264,228.928C677.016,229.589,678.300,231.455,679.244,234.714C679.861,236.839,680.014,240.694,679.957,252.614L679.909,262.280L677.410,262.366C673.852,262.484,668.655,262.295,668.500,262.039C668.317,261.743,668.480,238.655,668.675,236.977C669.358,231.128,672.128,227.743,675.264,228.928ZZM413.272,232.226C414.830,233.298,416.010,235.887,416.479,239.275C416.599,240.159,416.722,256.007,416.652,262.157C416.652,262.326,415.651,262.361,411.942,262.326L407.233,262.280L407.195,253.453C407.137,240.059,407.343,237.407,408.658,234.717C409.985,231.995,411.636,231.103,413.272,232.226ZZM691.795,232.002C692.761,232.512,694.239,234.503,694.823,236.081C695.415,237.673,695.531,240.112,695.433,248.997C695.383,253.530,695.338,258.352,695.335,259.716L695.328,262.198L690.761,262.198C687.258,262.198,686.179,262.147,686.124,261.987C685.840,261.155,686.307,238.160,686.633,236.945C687.622,233.250,689.945,231.025,691.795,232.002ZZ" fill-rule="evenodd" rx="0" ry="0" style="-webkit-print-color-adjust: exact; fill: rgb(255, 255, 255);"/></g></g></svg>